<svg xmlns="http://www.w3.org/2000/svg" width="960" height="200" viewBox="0 0 960 200">
  <defs>
    <linearGradient id="bg" x1="0" y1="0" x2="1" y2="1">
      <stop offset="0%" stop-color="#0a0a0b"/>
      <stop offset="100%" stop-color="#131316"/>
    </linearGradient>
    <linearGradient id="accent" x1="0" y1="0" x2="1" y2="0">
      <stop offset="0%" stop-color="#3b7bfd"/>
      <stop offset="100%" stop-color="#7a5af8"/>
    </linearGradient>
  </defs>
  <rect width="960" height="200" rx="12" fill="url(#bg)"/>
  <rect x="30" y="50" width="76" height="76" rx="18" fill="#101828" stroke="url(#accent)" stroke-width="3"/>
  <text x="68" y="98" font-family="-apple-system,BlinkMacSystemFont,'Segoe UI',Helvetica,Arial,sans-serif" font-size="24" font-weight="800" fill="#f4f4f5" text-anchor="middle">CO</text>
  <text x="120" y="90" font-family="-apple-system,BlinkMacSystemFont,'Segoe UI',Helvetica,Arial,sans-serif" font-size="42" font-weight="700" fill="#f4f4f5">COFORGE</text>
  <text x="122" y="120" font-family="-apple-system,BlinkMacSystemFont,'Segoe UI',Helvetica,Arial,sans-serif" font-size="16" fill="#a1a1aa">煤炭运营智能分析工作台</text>
  <rect x="122" y="138" width="76" height="22" rx="11" fill="#4e8cff22" stroke="#4e8cff44" stroke-width="1"/>
  <text x="160" y="153" font-family="-apple-system,sans-serif" font-size="11" fill="#4e8cff" text-anchor="middle">Next.js</text>
  <rect x="208" y="138" width="86" height="22" rx="11" fill="#34d39922" stroke="#34d39944" stroke-width="1"/>
  <text x="251" y="153" font-family="-apple-system,sans-serif" font-size="11" fill="#34d399" text-anchor="middle">SQLite</text>
  <rect x="304" y="138" width="92" height="22" rx="11" fill="#4e8cff22" stroke="#4e8cff44" stroke-width="1"/>
  <text x="350" y="153" font-family="-apple-system,sans-serif" font-size="11" fill="#4e8cff" text-anchor="middle">自配模型</text>
  <rect x="406" y="138" width="96" height="22" rx="11" fill="#34d39922" stroke="#34d39944" stroke-width="1"/>
  <text x="454" y="153" font-family="-apple-system,sans-serif" font-size="11" fill="#34d399" text-anchor="middle">只读 SQL</text>
  <g transform="translate(670, 38)" opacity="0.55">
    <path d="M0 104 L36 70 L76 82 L116 42 L156 56 L196 24 L250 38" fill="none" stroke="#4e8cff" stroke-width="3" stroke-linecap="round" stroke-linejoin="round"/>
    <rect x="6" y="108" width="28" height="32" rx="4" fill="#4e8cff"/>
    <rect x="46" y="86" width="28" height="54" rx="4" fill="#34d399"/>
    <rect x="86" y="98" width="28" height="42" rx="4" fill="#fbbf24"/>
    <rect x="126" y="62" width="28" height="78" rx="4" fill="#4e8cff"/>
    <rect x="166" y="76" width="28" height="64" rx="4" fill="#34d399"/>
    <rect x="206" y="48" width="28" height="92" rx="4" fill="#fbbf24"/>
    <circle cx="0" cy="104" r="4" fill="#f4f4f5"/>
    <circle cx="116" cy="42" r="4" fill="#f4f4f5"/>
    <circle cx="250" cy="38" r="4" fill="#f4f4f5"/>
  </g>
</svg>
